SeanNormal.ufo
<glyph name="exclam" format="1">
  <advance width="407"/>
  <unicode hex="0021"/>
  <outline>
    <contour>
      <point x="205" y="229" type="line"/>
      <point x="255" y="229" type="line"/>
      <point x="256" y="722" type="line"/>
      <point x="201" y="722" type="line"/>
    </contour>
    <contour>
      <point x="202" y="129" type="line"/>
      <point x="202" y="0" type="line"/>
      <point x="256" y="0" type="line"/>
      <point x="256" y="129" type="line"/>
    </contour>
  </outline>
</glyph>
<glyph name="quotedbl" format="1">
  <advance width="446"/>
  <unicode hex="0022"/>
  <outline>
    <contour>
      <point x="265" y="658" type="line"/>
      <point x="303" y="846" type="line"/>
      <point x="370" y="846" type="line"/>
      <point x="330" y="658" type="line"/>
    </contour>
    <contour>
      <point x="83" y="658" type="line"/>
      <point x="121" y="846" type="line"/>
      <point x="188" y="846" type="line"/>
      <point x="148" y="658" type="line"/>
    </contour>
  </outline>
</glyph>
<glyph name="numbersign" format="1">
  <advance width="660"/>
  <unicode hex="0023"/>
  <outline>
    <contour>
      <point x="51" y="232" type="line"/>
      <point x="65" y="287" type="line"/>
      <point x="159" y="290" type="line"/>
      <point x="209" y="453" type="line"/>
      <point x="119" y="450" type="line"/>
      <point x="132" y="505" type="line"/>
      <point x="226" y="508" type="line"/>
      <point x="287" y="706" type="line"/>
      <point x="343" y="706" type="line"/>
      <point x="283" y="510" type="line"/>
      <point x="443" y="516" type="line"/>
      <point x="506" y="720" type="line"/>
      <point x="562" y="720" type="line"/>
      <point x="499" y="518" type="line"/>
      <point x="582" y="521" type="line"/>
      <point x="573" y="466" type="line"/>
      <point x="482" y="463" type="line"/>
      <point x="431" y="300" type="line"/>
      <point x="514" y="303" type="line"/>
      <point x="503" y="248" type="line"/>
      <point x="414" y="245" type="line"/>
      <point x="350" y="38" type="line"/>
      <point x="294" y="38" type="line"/>
      <point x="358" y="243" type="line"/>
      <point x="199" y="237" type="line"/>
      <point x="136" y="30" type="line"/>
      <point x="79" y="30" type="line"/>
      <point x="142" y="235" type="line"/>
    </contour>
    <contour>
      <point x="266" y="455" type="line"/>
      <point x="216" y="292" type="line"/>
      <point x="375" y="298" type="line"/>
      <point x="425" y="461" type="line"/>
    </contour>
  </outline>
</glyph>
<glyph name="quotesingle" format="1">
  <advance width="263"/>
  <unicode hex="0027"/>
  <outline>
    <contour>
      <point x="87" y="658" type="line"/>
      <point x="127" y="846" type="line"/>
      <point x="191" y="846" type="line"/>
      <point x="152" y="658" type="line"/>
    </contour>
  </outline>
</glyph>
<glyph name="parenleft" format="1">
  <advance width="449"/>
  <unicode hex="0028"/>
  <outline>
    <contour>
      <point x="356" y="827" type="curve"/>
      <point x="314" y="859" type="line"/>
      <point x="161" y="719"/>
      <point x="72" y="524"/>
      <point x="72" y="306" type="curve" smooth="yes"/>
      <point x="72" y="96"/>
      <point x="160" y="-105"/>
      <point x="315" y="-248" type="curve"/>
      <point x="351" y="-211" type="line"/>
      <point x="206" y="-77"/>
      <point x="124" y="111"/>
      <point x="124" y="307" type="curve" smooth="yes"/>
      <point x="124" y="516"/>
      <point x="210" y="696"/>
    </contour>
  </outline>
</glyph>
<glyph name="parenright" format="1">
  <advance width="451"/>
  <unicode hex="0029"/>
  <outline>
    <contour>
      <point x="310" y="299" type="curve" smooth="yes"/>
      <point x="310" y="97"/>
      <point x="221" y="-96"/>
      <point x="67" y="-229" type="curve"/>
      <point x="107" y="-260" type="line"/>
      <point x="269" y="-118"/>
      <point x="363" y="86"/>
      <point x="363" y="301" type="curve" smooth="yes"/>
      <point x="363" y="528"/>
      <point x="269" y="722"/>
      <point x="110" y="861" type="curve"/>
      <point x="73" y="823" type="line"/>
      <point x="224" y="692"/>
      <point x="310" y="509"/>
    </contour>
  </outline>
</glyph>
<glyph name="plus" format="1">
  <advance width="754"/>
  <unicode hex="002B"/>
  <outline>
    <contour>
      <point x="91" y="278" type="line"/>
      <point x="357" y="278" type="line"/>
      <point x="356" y="17" type="line"/>
      <point x="408" y="17" type="line"/>
      <point x="408" y="277" type="line"/>
      <point x="664" y="277" type="line"/>
      <point x="664" y="328" type="line"/>
      <point x="409" y="328" type="line"/>
      <point x="409" y="554" type="line"/>
      <point x="358" y="554" type="line"/>
      <point x="357" y="329" type="line"/>
      <point x="91" y="329" type="line"/>
    </contour>
  </outline>
</glyph>
<glyph name="comma" format="1">
  <advance width="327"/>
  <unicode hex="002C"/>
  <outline>
    <contour>
      <point x="59" y="-100" type="line"/>
      <point x="106" y="-100" type="line"/>
      <point x="220" y="87" type="line"/>
      <point x="162" y="87" type="line"/>
    </contour>
  </outline>
</glyph>
<glyph name="hyphen" format="1">
  <advance width="392"/>
  <unicode hex="002D"/>
  <outline>
    <contour>
      <point x="54" y="281" type="line"/>
      <point x="54" y="231" type="line"/>
      <point x="340" y="231" type="line"/>
      <point x="340" y="281" type="line"/>
    </contour>
  </outline>
</glyph>
<glyph name="period" format="1">
  <advance width="335"/>
  <unicode hex="002E"/>
  <outline>
    <contour>
      <point x="133" y="157" type="line"/>
      <point x="207" y="157" type="line"/>
      <point x="207" y="0" type="line"/>
      <point x="133" y="0" type="line"/>
    </contour>
  </outline>
</glyph>
<glyph name="slash" format="1">
  <advance width="572"/>
  <unicode hex="002F"/>
  <outline>
    <contour>
      <point x="121" y="-68" type="line"/>
      <point x="50" y="-68" type="line"/>
      <point x="466" y="844" type="line"/>
      <point x="536" y="844" type="line"/>
    </contour>
  </outline>
</glyph>
<glyph name="zero" format="1">
  <advance width="579"/>
  <unicode hex="0030"/>
  <outline>
    <contour>
      <point x="129" y="260" type="curve" smooth="yes"/>
      <point x="129" y="152"/>
      <point x="191" y="54"/>
      <point x="290" y="54" type="curve" smooth="yes"/>
      <point x="386" y="54"/>
      <point x="456" y="152"/>
      <point x="456" y="264" type="curve" smooth="yes"/>
      <point x="456" y="369"/>
      <point x="394" y="463"/>
      <point x="294" y="463" type="curve" smooth="yes"/>
      <point x="196" y="463"/>
      <point x="129" y="368"/>
    </contour>
    <contour>
      <point x="291" y="-13" type="line" smooth="yes"/>
      <point x="157" y="-13"/>
      <point x="59" y="112"/>
      <point x="59" y="263" type="curve" smooth="yes"/>
      <point x="59" y="406"/>
      <point x="154" y="532"/>
      <point x="291" y="532" type="curve" smooth="yes"/>
      <point x="428" y="532"/>
      <point x="525" y="405"/>
      <point x="525" y="261" type="curve" smooth="yes"/>
      <point x="525" y="112"/>
      <point x="426" y="-13"/>
      <point x="293" y="-13" type="curve" smooth="yes"/>
    </contour>
  </outline>
</glyph>
<glyph name="one" format="1">
  <advance width="323"/>
  <unicode hex="0031"/>
  <outline>
    <contour>
      <point x="181" y="484" type="line"/>
      <point x="252" y="484" type="line"/>
      <point x="253" y="0" type="line"/>
      <point x="182" y="0" type="line"/>
      <point x="181" y="400" type="line"/>
      <point x="30" y="276" type="line"/>
      <point x="-14" y="324" type="line"/>
    </contour>
  </outline>
</glyph>
<glyph name="two" format="1">
  <advance width="453"/>
  <unicode hex="0032"/>
  <outline>
    <contour>
      <point x="325" y="352" type="curve" smooth="yes"/>
      <point x="325" y="415"/>
      <point x="285" y="474"/>
      <point x="209" y="474" type="curve" smooth="yes"/>
      <point x="149" y="474"/>
      <point x="107" y="424"/>
      <point x="68" y="366" type="curve"/>
      <point x="19" y="404" type="line"/>
      <point x="72" y="481"/>
      <point x="135" y="540"/>
      <point x="214" y="540" type="curve" smooth="yes"/>
      <point x="327" y="540"/>
      <point x="388" y="454"/>
      <point x="388" y="360" type="curve" smooth="yes"/>
      <point x="388" y="335"/>
      <point x="384" y="309"/>
      <point x="376" y="282" type="curve" smooth="yes"/>
      <point x="347" y="184"/>
      <point x="286" y="116"/>
      <point x="203" y="82" type="curve"/>
      <point x="449" y="82" type="line"/>
      <point x="449" y="18" type="line"/>
      <point x="14" y="18" type="line"/>
      <point x="14" y="82" type="line"/>
      <point x="146" y="82"/>
      <point x="245" y="142"/>
      <point x="302" y="260" type="curve" smooth="yes"/>
      <point x="317" y="292"/>
      <point x="325" y="323"/>
    </contour>
  </outline>
</glyph>
<glyph name="three" format="1">
  <advance width="493"/>
  <unicode hex="0033"/>
  <outline>
    <contour>
      <point x="341" y="323" type="curve" smooth="yes"/>
      <point x="341" y="223"/>
      <point x="237" y="155"/>
      <point x="123" y="155" type="curve"/>
      <point x="124" y="105" type="line"/>
      <point x="219" y="105"/>
      <point x="324" y="98"/>
      <point x="361" y="15" type="curve" smooth="yes"/>
      <point x="368" y="0"/>
      <point x="371" y="-16"/>
      <point x="371" y="-32" type="curve" smooth="yes"/>
      <point x="371" y="-123"/>
      <point x="276" y="-196"/>
      <point x="182" y="-196" type="curve" smooth="yes"/>
      <point x="141" y="-196"/>
      <point x="100" y="-184"/>
      <point x="65" y="-159" type="curve"/>
      <point x="45" y="-205" type="line"/>
      <point x="88" y="-233"/>
      <point x="137" y="-246"/>
      <point x="185" y="-246" type="curve" smooth="yes"/>
      <point x="309" y="-246"/>
      <point x="426" y="-147"/>
      <point x="426" y="-32" type="curve" smooth="yes"/>
      <point x="426" y="69"/>
      <point x="348" y="120"/>
      <point x="270" y="140" type="curve"/>
      <point x="343" y="179"/>
      <point x="394" y="246"/>
      <point x="394" y="327" type="curve" smooth="yes"/>
      <point x="394" y="436"/>
      <point x="305" y="516"/>
      <point x="189" y="516" type="curve" smooth="yes"/>
      <point x="124" y="516"/>
      <point x="60" y="488"/>
      <point x="17" y="436" type="curve"/>
      <point x="38" y="400" type="line"/>
      <point x="74" y="444"/>
      <point x="126" y="468"/>
      <point x="181" y="468" type="curve" smooth="yes"/>
      <point x="272" y="468"/>
      <point x="341" y="406"/>
    </contour>
  </outline>
</glyph>
<glyph name="four" format="1">
  <advance width="610"/>
  <unicode hex="0034"/>
  <outline>
    <contour>
      <point x="65" y="106" type="line"/>
      <point x="377" y="468" type="line"/>
      <point x="376" y="106" type="line"/>
    </contour>
    <contour>
      <point x="11" y="106" type="line"/>
      <point x="11" y="56" type="line"/>
      <point x="376" y="56" type="line"/>
      <point x="376" y="-222" type="line"/>
      <point x="430" y="-222" type="line"/>
      <point x="431" y="56" type="line"/>
      <point x="597" y="56" type="line"/>
      <point x="597" y="106" type="line"/>
      <point x="431" y="106" type="line"/>
      <point x="432" y="527" type="line"/>
      <point x="377" y="527" type="line"/>
    </contour>
  </outline>
</glyph>
<glyph name="five" format="1">
  <advance width="512"/>
  <unicode hex="0035"/>
  <outline>
    <contour>
      <point x="202" y="299" type="curve" smooth="yes"/>
      <point x="185" y="299"/>
      <point x="166" y="297"/>
      <point x="148" y="294" type="curve"/>
      <point x="150" y="484" type="line"/>
      <point x="434" y="484" type="line"/>
      <point x="434" y="534" type="line"/>
      <point x="97" y="534" type="line"/>
      <point x="97" y="441"/>
      <point x="96" y="348"/>
      <point x="96" y="255" type="curve" smooth="yes"/>
      <point x="96" y="230" type="line"/>
      <point x="129" y="244"/>
      <point x="162" y="250"/>
      <point x="193" y="250" type="curve" smooth="yes"/>
      <point x="304" y="250"/>
      <point x="395" y="161"/>
      <point x="395" y="20" type="curve" smooth="yes"/>
      <point x="395" y="-102"/>
      <point x="312" y="-183"/>
      <point x="210" y="-183" type="curve" smooth="yes"/>
      <point x="174" y="-183"/>
      <point x="136" y="-173"/>
      <point x="98" y="-151" type="curve"/>
      <point x="74" y="-196" type="line"/>
      <point x="122" y="-224"/>
      <point x="171" y="-237"/>
      <point x="217" y="-237" type="curve" smooth="yes"/>
      <point x="346" y="-237"/>
      <point x="449" y="-135"/>
      <point x="449" y="16" type="curve" smooth="yes"/>
      <point x="449" y="189"/>
      <point x="340" y="299"/>
    </contour>
  </outline>
</glyph>
<glyph name="six" format="1">
  <advance width="593"/>
  <unicode hex="0036"/>
  <outline>
    <contour>
      <point x="509" y="728" type="curve"/>
      <point x="536" y="666" type="line"/>
      <point x="434" y="633"/>
      <point x="341" y="579"/>
      <point x="263" y="506" type="curve" smooth="yes"/>
      <point x="206" y="453"/>
      <point x="157" y="388"/>
      <point x="139" y="317" type="curve"/>
      <point x="187" y="357"/>
      <point x="248" y="379"/>
      <point x="310" y="379" type="curve" smooth="yes"/>
      <point x="429" y="379"/>
      <point x="530" y="309"/>
      <point x="530" y="190" type="curve" smooth="yes"/>
      <point x="530" y="81"/>
      <point x="432" y="-9"/>
      <point x="312" y="-9" type="curve" smooth="yes"/>
      <point x="166" y="-9"/>
      <point x="64" y="110"/>
      <point x="64" y="254" type="curve" smooth="yes"/>
      <point x="64" y="357"/>
      <point x="120" y="453"/>
      <point x="194" y="530" type="curve" smooth="yes"/>
      <point x="281" y="622"/>
      <point x="389" y="690"/>
    </contour>
    <contour>
      <point x="454" y="188" type="curve" smooth="yes"/>
      <point x="454" y="264"/>
      <point x="380" y="322"/>
      <point x="291" y="322" type="curve" smooth="yes"/>
      <point x="230" y="322"/>
      <point x="172" y="294"/>
      <point x="133" y="246" type="curve"/>
      <point x="140" y="141"/>
      <point x="220" y="64"/>
      <point x="315" y="64" type="curve" smooth="yes"/>
      <point x="391" y="64"/>
      <point x="454" y="118"/>
    </contour>
  </outline>
</glyph>
<glyph name="seven" format="1">
  <advance width="572"/>
  <unicode hex="0037"/>
  <outline>
    <contour>
      <point x="76" y="497" type="line"/>
      <point x="529" y="497" type="line"/>
      <point x="529" y="429" type="line"/>
      <point x="165" y="-222" type="line"/>
      <point x="90" y="-222" type="line"/>
      <point x="452" y="429" type="line"/>
      <point x="76" y="430" type="line"/>
    </contour>
  </outline>
</glyph>
<glyph name="eight" format="1">
  <advance width="579"/>
  <unicode hex="0038"/>
  <outline>
    <contour>
      <point x="288" y="616" type="curve" smooth="yes"/>
      <point x="359" y="616"/>
      <point x="427" y="578"/>
      <point x="427" y="505" type="curve" smooth="yes"/>
      <point x="427" y="442"/>
      <point x="365" y="397"/>
      <point x="301" y="364" type="curve"/>
      <point x="229" y="399"/>
      <point x="161" y="446"/>
      <point x="161" y="511" type="curve" smooth="yes"/>
      <point x="161" y="582"/>
      <point x="225" y="616"/>
    </contour>
    <contour>
      <point x="292" y="-18" type="curve" smooth="yes"/>
      <point x="400" y="-18"/>
      <point x="494" y="56"/>
      <point x="494" y="157" type="curve" smooth="yes"/>
      <point x="494" y="245"/>
      <point x="427" y="301"/>
      <point x="351" y="340" type="curve"/>
      <point x="421" y="377"/>
      <point x="479" y="435"/>
      <point x="479" y="509" type="curve" smooth="yes"/>
      <point x="479" y="604"/>
      <point x="392" y="667"/>
      <point x="293" y="667" type="curve" smooth="yes"/>
      <point x="200" y="667"/>
      <point x="112" y="607"/>
      <point x="112" y="512" type="curve" smooth="yes"/>
      <point x="112" y="435"/>
      <point x="175" y="377"/>
      <point x="249" y="337" type="curve"/>
      <point x="169" y="294"/>
      <point x="97" y="238"/>
      <point x="97" y="151" type="curve" smooth="yes"/>
      <point x="97" y="53"/>
      <point x="187" y="-18"/>
    </contour>
    <contour>
      <point x="302" y="31" type="curve" smooth="yes"/>
      <point x="223" y="31"/>
      <point x="150" y="83"/>
      <point x="150" y="158" type="curve" smooth="yes"/>
      <point x="150" y="231"/>
      <point x="224" y="276"/>
      <point x="298" y="313" type="curve"/>
      <point x="373" y="276"/>
      <point x="448" y="228"/>
      <point x="448" y="153" type="curve" smooth="yes"/>
      <point x="448" y="76"/>
      <point x="376" y="31"/>
    </contour>
  </outline>
</glyph>
<glyph name="nine" format="1">
  <advance width="596"/>
  <unicode hex="0039"/>
  <outline>
    <contour>
      <point x="291" y="482" type="curve" smooth="yes"/>
      <point x="179" y="482"/>
      <point x="88" y="394"/>
      <point x="88" y="287" type="curve" smooth="yes"/>
      <point x="88" y="173"/>
      <point x="180" y="99"/>
      <point x="294" y="99" type="curve" smooth="yes"/>
      <point x="354" y="99"/>
      <point x="413" y="122"/>
      <point x="456" y="163" type="curve"/>
      <point x="439" y="100"/>
      <point x="399" y="43"/>
      <point x="352" y="-5" type="curve" smooth="yes"/>
      <point x="279" y="-81"/>
      <point x="188" y="-136"/>
      <point x="87" y="-167" type="curve"/>
      <point x="106" y="-214" type="line"/>
      <point x="210" y="-182"/>
      <point x="304" y="-126"/>
      <point x="382" y="-50" type="curve" smooth="yes"/>
      <point x="459" y="25"/>
      <point x="519" y="122"/>
      <point x="519" y="230" type="curve" smooth="yes"/>
      <point x="519" y="361"/>
      <point x="430" y="482"/>
    </contour>
    <contour>
      <point x="135" y="296" type="curve" smooth="yes"/>
      <point x="135" y="376"/>
      <point x="202" y="440"/>
      <point x="285" y="440" type="curve" smooth="yes"/>
      <point x="389" y="440"/>
      <point x="463" y="346"/>
      <point x="465" y="236" type="curve"/>
      <point x="430" y="181"/>
      <point x="369" y="147"/>
      <point x="303" y="147" type="curve" smooth="yes"/>
      <point x="211" y="147"/>
      <point x="135" y="208"/>
    </contour>
  </outline>
</glyph>
<glyph name="colon" format="1">
  <advance width="361"/>
  <unicode hex="003A"/>
  <outline>
    <contour>
      <point x="150" y="149" type="line"/>
      <point x="221" y="149" type="line"/>
      <point x="221" y="0" type="line"/>
      <point x="150" y="0" type="line"/>
    </contour>
    <contour>
      <point x="150" y="489" type="line"/>
      <point x="221" y="489" type="line"/>
      <point x="221" y="341" type="line"/>
      <point x="150" y="341" type="line"/>
    </contour>
  </outline>
</glyph>
<glyph name="semicolon" format="1">
  <advance width="327"/>
  <unicode hex="003B"/>
  <outline>
    <contour>
      <point x="157" y="321" type="line"/>
      <point x="211" y="321" type="line"/>
      <point x="211" y="457" type="line"/>
      <point x="157" y="457" type="line"/>
    </contour>
    <contour>
      <point x="57" y="-89" type="line"/>
      <point x="108" y="-89" type="line"/>
      <point x="219" y="87" type="line"/>
      <point x="163" y="87" type="line"/>
    </contour>
  </outline>
</glyph>
<glyph name="less" format="1">
  <advance width="816"/>
  <unicode hex="003C"/>
  <outline>
    <contour>
      <point x="167" y="283" type="line"/>
      <point x="701" y="509" type="line"/>
      <point x="701" y="564" type="line"/>
      <point x="102" y="309" type="line"/>
      <point x="102" y="255" type="line"/>
      <point x="711" y="7" type="line"/>
      <point x="711" y="61" type="line"/>
    </contour>
  </outline>
</glyph>
<glyph name="equal" format="1">
  <advance width="839"/>
  <unicode hex="003D"/>
  <outline>
    <contour>
      <point x="109" y="250" type="line"/>
      <point x="724" y="250" type="line"/>
      <point x="724" y="185" type="line"/>
      <point x="109" y="185" type="line"/>
    </contour>
    <contour>
      <point x="109" y="472" type="line"/>
      <point x="724" y="472" type="line"/>
      <point x="724" y="407" type="line"/>
      <point x="109" y="407" type="line"/>
    </contour>
  </outline>
</glyph>
<glyph name="greater" format="1">
  <advance width="818"/>
  <unicode hex="003E"/>
  <outline>
    <contour>
      <point x="123" y="1" type="line"/>
      <point x="123" y="72" type="line"/>
      <point x="641" y="301" type="line"/>
      <point x="109" y="535" type="line"/>
      <point x="109" y="605" type="line"/>
      <point x="720" y="336" type="line"/>
      <point x="720" y="266" type="line"/>
    </contour>
  </outline>
</glyph>
<glyph name="question" format="1">
  <advance width="555"/>
  <unicode hex="003F"/>
  <outline>
    <contour>
      <point x="229" y="371" type="line"/>
      <point x="325" y="371"/>
      <point x="422" y="426"/>
      <point x="422" y="529" type="curve" smooth="yes"/>
      <point x="422" y="612"/>
      <point x="352" y="674"/>
      <point x="276" y="674" type="curve" smooth="yes"/>
      <point x="252" y="674"/>
      <point x="227" y="668"/>
      <point x="203" y="654" type="curve"/>
      <point x="179" y="714" type="line"/>
      <point x="211" y="730"/>
      <point x="244" y="738"/>
      <point x="276" y="738" type="curve" smooth="yes"/>
      <point x="389" y="738"/>
      <point x="488" y="644"/>
      <point x="488" y="527" type="curve" smooth="yes"/>
      <point x="488" y="403"/>
      <point x="400" y="335"/>
      <point x="299" y="314" type="curve"/>
      <point x="298" y="226" type="line"/>
      <point x="228" y="226" type="line"/>
      <point x="229" y="328" type="line"/>
    </contour>
    <contour>
      <point x="301" y="-10" type="line"/>
      <point x="224" y="-10" type="line"/>
      <point x="224" y="134" type="line"/>
      <point x="301" y="134" type="line"/>
    </contour>
  </outline>
</glyph>
<glyph name="at" format="1">
  <advance width="850"/>
  <unicode hex="0040"/>
  <outline>
    <contour>
      <point x="734" y="244" type="curve" smooth="yes"/>
      <point x="734" y="397"/>
      <point x="599" y="515"/>
      <point x="438" y="515" type="curve" smooth="yes"/>
      <point x="264" y="515"/>
      <point x="118" y="382"/>
      <point x="118" y="211" type="curve" smooth="yes"/>
      <point x="118" y="38"/>
      <point x="268" y="-96"/>
      <point x="444" y="-96" type="curve" smooth="yes"/>
      <point x="446" y="-96" type="line"/>
      <point x="530" y="-95"/>
      <point x="610" y="-63"/>
      <point x="671" y="-6" type="curve"/>
      <point x="711" y="-50" type="line"/>
      <point x="638" y="-116"/>
      <point x="543" y="-153"/>
      <point x="445" y="-153" type="curve" smooth="yes"/>
      <point x="235" y="-153"/>
      <point x="60" y="4"/>
      <point x="60" y="208" type="curve" smooth="yes"/>
      <point x="60" y="412"/>
      <point x="233" y="569"/>
      <point x="439" y="569" type="curve" smooth="yes"/>
      <point x="635" y="569"/>
      <point x="793" y="430"/>
      <point x="793" y="249" type="curve" smooth="yes"/>
      <point x="793" y="123"/>
      <point x="709" y="29"/>
      <point x="622" y="29" type="curve" smooth="yes"/>
      <point x="578" y="29"/>
      <point x="538" y="54"/>
      <point x="521" y="86" type="curve"/>
      <point x="490" y="59"/>
      <point x="451" y="44"/>
      <point x="410" y="44" type="curve" smooth="yes"/>
      <point x="312" y="44"/>
      <point x="242" y="118"/>
      <point x="242" y="214" type="curve" smooth="yes"/>
      <point x="242" y="319"/>
      <point x="332" y="407"/>
      <point x="441" y="407" type="curve" smooth="yes"/>
      <point x="521" y="407"/>
      <point x="592" y="361"/>
      <point x="592" y="282" type="curve" smooth="yes"/>
      <point x="592" y="237"/>
      <point x="567" y="197"/>
      <point x="567" y="149" type="curve" smooth="yes"/>
      <point x="567" y="113"/>
      <point x="592" y="83"/>
      <point x="627" y="83" type="curve" smooth="yes"/>
      <point x="678" y="83"/>
      <point x="734" y="149"/>
    </contour>
    <contour>
      <point x="302" y="213" type="curve" smooth="yes"/>
      <point x="302" y="144"/>
      <point x="349" y="92"/>
      <point x="413" y="92" type="curve" smooth="yes"/>
      <point x="454" y="92"/>
      <point x="502" y="119"/>
      <point x="509" y="163" type="curve" smooth="yes"/>
      <point x="515" y="200"/>
      <point x="536" y="236"/>
      <point x="536" y="271" type="curve" smooth="yes"/>
      <point x="536" y="324"/>
      <point x="490" y="351"/>
      <point x="443" y="351" type="curve" smooth="yes"/>
      <point x="365" y="351"/>
      <point x="302" y="288"/>
    </contour>
  </outline>
</glyph>
<glyph name="A" format="1">
  <advance width="759"/>
  <unicode hex="0041"/>
  <outline>
    <contour>
      <point x="523" y="289" type="line"/>
      <point x="413" y="630" type="line"/>
      <point x="261" y="289" type="line"/>
    </contour>
    <contour>
      <point x="543" y="228" type="line"/>
      <point x="234" y="228" type="line"/>
      <point x="133" y="0" type="line"/>
      <point x="58" y="0" type="line"/>
      <point x="383" y="721" type="line"/>
      <point x="453" y="721" type="line"/>
      <point x="689" y="1" type="line"/>
      <point x="616" y="1" type="line"/>
    </contour>
  </outline>
</glyph>
<glyph name="B" format="1">
  <advance width="587"/>
  <unicode hex="0042"/>
  <outline>
    <contour>
      <point x="252" y="722" type="curve" smooth="yes"/>
      <point x="96" y="722" type="line"/>
      <point x="96" y="0" type="line"/>
      <point x="256" y="0" type="line" smooth="yes"/>
      <point x="401" y="0"/>
      <point x="513" y="77"/>
      <point x="513" y="212" type="curve" smooth="yes"/>
      <point x="513" y="307"/>
      <point x="457" y="372"/>
      <point x="376" y="403" type="curve"/>
      <point x="434" y="431"/>
      <point x="470" y="481"/>
      <point x="470" y="548" type="curve" smooth="yes"/>
      <point x="470" y="667"/>
      <point x="373" y="722"/>
    </contour>
    <contour>
      <point x="254" y="378" type="line" smooth="yes"/>
      <point x="368" y="378"/>
      <point x="458" y="320"/>
      <point x="458" y="214" type="curve" smooth="yes"/>
      <point x="458" y="106"/>
      <point x="371" y="49"/>
      <point x="256" y="49" type="curve" smooth="yes"/>
      <point x="151" y="49" type="line"/>
      <point x="151" y="378" type="line"/>
    </contour>
    <contour>
      <point x="151" y="427" type="line"/>
      <point x="151" y="673" type="line"/>
      <point x="252" y="673" type="line" smooth="yes"/>
      <point x="342" y="673"/>
      <point x="417" y="635"/>
      <point x="417" y="550" type="curve" smooth="yes"/>
      <point x="417" y="469"/>
      <point x="344" y="427"/>
      <point x="254" y="427" type="curve" smooth="yes"/>
    </contour>
  </outline>
</glyph>
<glyph name="C" format="1">
  <advance width="683"/>
  <unicode hex="0043"/>
  <outline>
    <contour>
      <point x="411" y="61" type="curve" smooth="yes"/>
      <point x="501" y="61"/>
      <point x="568" y="90"/>
      <point x="627" y="137" type="curve"/>
      <point x="667" y="81" type="line"/>
      <point x="592" y="25"/>
      <point x="508" y="-7"/>
      <point x="403" y="-7" type="curve" smooth="yes"/>
      <point x="201" y="-7"/>
      <point x="78" y="134"/>
      <point x="78" y="349" type="curve" smooth="yes"/>
      <point x="78" y="582"/>
      <point x="206" y="731"/>
      <point x="414" y="731" type="curve" smooth="yes"/>
      <point x="515" y="731"/>
      <point x="591" y="705"/>
      <point x="665" y="658" type="curve"/>
      <point x="630" y="600" type="line"/>
      <point x="569" y="642"/>
      <point x="501" y="663"/>
      <point x="423" y="663" type="curve" smooth="yes"/>
      <point x="250" y="663"/>
      <point x="150" y="542"/>
      <point x="150" y="352" type="curve" smooth="yes"/>
      <point x="150" y="178"/>
      <point x="251" y="61"/>
    </contour>
  </outline>
</glyph>
<glyph name="D" format="1">
  <advance width="699"/>
  <unicode hex="0044"/>
  <outline>
    <contour>
      <point x="278" y="722" type="line" smooth="yes"/>
      <point x="509" y="722"/>
      <point x="642" y="587"/>
      <point x="642" y="347" type="curve" smooth="yes"/>
      <point x="642" y="131"/>
      <point x="534" y="0"/>
      <point x="318" y="0" type="curve" smooth="yes"/>
      <point x="76" y="0" type="line"/>
      <point x="76" y="722" type="line"/>
    </contour>
    <contour>
      <point x="569" y="342" type="curve" smooth="yes"/>
      <point x="569" y="534"/>
      <point x="470" y="652"/>
      <point x="289" y="652" type="curve" smooth="yes"/>
      <point x="146" y="652" type="line"/>
      <point x="146" y="70" type="line"/>
      <point x="292" y="70" type="line" smooth="yes"/>
      <point x="471" y="70"/>
      <point x="569" y="169"/>
    </contour>
  </outline>
</glyph>
<glyph name="E" format="1">
  <advance width="614"/>
  <unicode hex="0045"/>
  <outline>
    <contour>
      <point x="108" y="0" type="line"/>
      <point x="108" y="722" type="line"/>
      <point x="529" y="722" type="line"/>
      <point x="529" y="653" type="line"/>
      <point x="178" y="653" type="line"/>
      <point x="178" y="408" type="line"/>
      <point x="450" y="408" type="line"/>
      <point x="450" y="339" type="line"/>
      <point x="178" y="339" type="line"/>
      <point x="178" y="69" type="line"/>
      <point x="562" y="69" type="line"/>
      <point x="562" y="0" type="line"/>
    </contour>
  </outline>
</glyph>
<glyph name="F" format="1">
  <advance width="511"/>
  <unicode hex="0046"/>
  <outline>
    <contour>
      <point x="96" y="0" type="line"/>
      <point x="151" y="0" type="line"/>
      <point x="151" y="348" type="line"/>
      <point x="411" y="348" type="line"/>
      <point x="411" y="399" type="line"/>
      <point x="151" y="399" type="line"/>
      <point x="151" y="671" type="line"/>
      <point x="473" y="671" type="line"/>
      <point x="473" y="722" type="line"/>
      <point x="96" y="722" type="line"/>
    </contour>
  </outline>
</glyph>
<glyph name="G" format="1">
  <advance width="778"/>
  <unicode hex="0047"/>
  <outline>
    <contour>
      <point x="437" y="44" type="curve" smooth="yes"/>
      <point x="245" y="44"/>
      <point x="136" y="164"/>
      <point x="136" y="367" type="curve" smooth="yes"/>
      <point x="136" y="561"/>
      <point x="244" y="677"/>
      <point x="426" y="677" type="curve" smooth="yes"/>
      <point x="524" y="677"/>
      <point x="604" y="652"/>
      <point x="679" y="605" type="curve"/>
      <point x="686" y="656" type="line"/>
      <point x="605" y="703"/>
      <point x="522" y="731"/>
      <point x="414" y="731" type="curve" smooth="yes"/>
      <point x="205" y="731"/>
      <point x="82" y="592"/>
      <point x="82" y="367" type="curve" smooth="yes"/>
      <point x="82" y="132"/>
      <point x="204" y="-6"/>
      <point x="424" y="-6" type="curve" smooth="yes"/>
      <point x="531" y="-6"/>
      <point x="626" y="23"/>
      <point x="713" y="75" type="curve"/>
      <point x="713" y="332" type="line"/>
      <point x="483" y="332" type="line"/>
      <point x="483" y="283" type="line"/>
      <point x="662" y="283" type="line"/>
      <point x="663" y="96" type="line"/>
      <point x="593" y="61"/>
      <point x="521" y="44"/>
    </contour>
  </outline>
</glyph>
<glyph name="H" format="1">
  <advance width="777"/>
  <unicode hex="0048"/>
  <outline>
    <contour>
      <point x="627" y="722" type="line"/>
      <point x="627" y="388" type="line"/>
      <point x="151" y="388" type="line"/>
      <point x="151" y="722" type="line"/>
      <point x="97" y="722" type="line"/>
      <point x="96" y="0" type="line"/>
      <point x="151" y="0" type="line"/>
      <point x="151" y="336" type="line"/>
      <point x="627" y="336" type="line"/>
      <point x="627" y="0" type="line"/>
      <point x="681" y="0" type="line"/>
      <point x="681" y="722" type="line"/>
    </contour>
  </outline>
</glyph>
<glyph name="I" format="1">
  <advance width="247"/>
  <unicode hex="0049"/>
  <outline>
    <contour>
      <point x="96" y="0" type="line"/>
      <point x="151" y="0" type="line"/>
      <point x="151" y="722" type="line"/>
      <point x="97" y="722" type="line"/>
    </contour>
  </outline>
</glyph>
<glyph name="J" format="1">
  <advance width="312"/>
  <unicode hex="004A"/>
  <outline>
    <contour>
      <point x="222" y="0" type="line" smooth="yes"/>
      <point x="222" y="-114"/>
      <point x="154" y="-227"/>
      <point x="35" y="-227" type="curve" smooth="yes"/>
      <point x="-2" y="-227"/>
      <point x="-38" y="-213"/>
      <point x="-65" y="-187" type="curve"/>
      <point x="-32" y="-131" type="line"/>
      <point x="-14" y="-153"/>
      <point x="11" y="-164"/>
      <point x="38" y="-164" type="curve" smooth="yes"/>
      <point x="124" y="-164"/>
      <point x="152" y="-75"/>
      <point x="152" y="0" type="curve" smooth="yes"/>
      <point x="152" y="722" type="line"/>
      <point x="223" y="722" type="line"/>
    </contour>
  </outline>
</glyph>
<glyph name="K" format="1">
  <advance width="665"/>
  <unicode hex="004B"/>
  <outline>
    <contour>
      <point x="92" y="0" type="line"/>
      <point x="92" y="722" type="line"/>
      <point x="162" y="722" type="line"/>
      <point x="162" y="429" type="line"/>
      <point x="506" y="722" type="line"/>
      <point x="589" y="722" type="line"/>
      <point x="201" y="383" type="line"/>
      <point x="606" y="0" type="line"/>
      <point x="524" y="0" type="line"/>
      <point x="162" y="335" type="line"/>
      <point x="162" y="0" type="line"/>
    </contour>
  </outline>
</glyph>
<glyph name="L" format="1">
  <advance width="566"/>
  <unicode hex="004C"/>
  <outline>
    <contour>
      <point x="96" y="0" type="line"/>
      <point x="537" y="0" type="line"/>
      <point x="537" y="51" type="line"/>
      <point x="151" y="51" type="line"/>
      <point x="151" y="722" type="line"/>
      <point x="96" y="722" type="line"/>
    </contour>
  </outline>
</glyph>
<glyph name="M" format="1">
  <advance width="877"/>
  <unicode hex="004D"/>
  <outline>
    <contour>
      <point x="729" y="722" type="line"/>
      <point x="676" y="722" type="line"/>
      <point x="675" y="722" type="line"/>
      <point x="412" y="57" type="line"/>
      <point x="171" y="722" type="line"/>
      <point x="117" y="722" type="line"/>
      <point x="63" y="0" type="line"/>
      <point x="117" y="0" type="line"/>
      <point x="161" y="605" type="line"/>
      <point x="390" y="0" type="line"/>
      <point x="444" y="0" type="line"/>
      <point x="686" y="612" type="line"/>
      <point x="741" y="0" type="line"/>
      <point x="795" y="0" type="line"/>
    </contour>
  </outline>
</glyph>
<glyph name="N" format="1">
  <advance width="767"/>
  <unicode hex="004E"/>
  <outline>
    <contour>
      <point x="96" y="0" type="line"/>
      <point x="151" y="0" type="line"/>
      <point x="151" y="644" type="line"/>
      <point x="628" y="0" type="line"/>
      <point x="682" y="0" type="line"/>
      <point x="682" y="722" type="line"/>
      <point x="628" y="722" type="line"/>
      <point x="628" y="78" type="line"/>
      <point x="151" y="722" type="line"/>
      <point x="96" y="722" type="line"/>
    </contour>
  </outline>
</glyph>
<glyph name="O" format="1">
  <advance width="759"/>
  <unicode hex="004F"/>
  <outline>
    <contour>
      <point x="378" y="677" type="curve" smooth="yes"/>
      <point x="541" y="677"/>
      <point x="639" y="535"/>
      <point x="639" y="360" type="curve" smooth="yes"/>
      <point x="639" y="188"/>
      <point x="547" y="46"/>
      <point x="380" y="46" type="curve" smooth="yes"/>
      <point x="222" y="46"/>
      <point x="122" y="185"/>
      <point x="122" y="358" type="curve" smooth="yes"/>
      <point x="122" y="533"/>
      <point x="216" y="677"/>
    </contour>
    <contour>
      <point x="69" y="359" type="curve" smooth="yes"/>
      <point x="69" y="156"/>
      <point x="189" y="-6"/>
      <point x="381" y="-6" type="curve" smooth="yes"/>
      <point x="573" y="-5"/>
      <point x="692" y="158"/>
      <point x="692" y="361" type="curve" smooth="yes"/>
      <point x="692" y="562"/>
      <point x="576" y="728"/>
      <point x="381" y="728" type="curve" smooth="yes"/>
      <point x="191" y="728"/>
      <point x="69" y="565"/>
    </contour>
  </outline>
</glyph>
<glyph name="P" format="1">
  <advance width="558"/>
  <unicode hex="0050"/>
  <outline>
    <contour>
      <point x="285" y="259" type="curve" smooth="yes"/>
      <point x="238" y="259"/>
      <point x="200" y="268"/>
      <point x="162" y="285" type="curve"/>
      <point x="162" y="0" type="line"/>
      <point x="92" y="0" type="line"/>
      <point x="92" y="722" type="line"/>
      <point x="253" y="722" type="line" smooth="yes"/>
      <point x="399" y="722"/>
      <point x="519" y="641"/>
      <point x="519" y="480" type="curve" smooth="yes"/>
      <point x="519" y="353"/>
      <point x="422" y="259"/>
    </contour>
    <contour>
      <point x="448" y="484" type="curve" smooth="yes"/>
      <point x="448" y="599"/>
      <point x="359" y="655"/>
      <point x="253" y="655" type="curve" smooth="yes"/>
      <point x="162" y="655" type="line"/>
      <point x="162" y="356" type="line"/>
      <point x="195" y="339"/>
      <point x="233" y="329"/>
      <point x="270" y="329" type="curve" smooth="yes"/>
      <point x="376" y="329"/>
      <point x="448" y="394"/>
    </contour>
  </outline>
</glyph>
<glyph name="Q" format="1">
  <advance width="765"/>
  <unicode hex="0051"/>
  <outline>
    <contour>
      <point x="437" y="-2" type="curve"/>
      <point x="509" y="-94"/>
      <point x="631" y="-168"/>
      <point x="777" y="-174" type="curve"/>
      <point x="777" y="-239" type="line"/>
      <point x="596" y="-231"/>
      <point x="446" y="-129"/>
      <point x="365" y="-6" type="curve"/>
      <point x="176" y="3"/>
      <point x="58" y="157"/>
      <point x="58" y="365" type="curve" smooth="yes"/>
      <point x="58" y="574"/>
      <point x="183" y="728"/>
      <point x="384" y="728" type="curve" smooth="yes"/>
      <point x="585" y="727"/>
      <point x="710" y="572"/>
      <point x="710" y="357" type="curve" smooth="yes"/>
      <point x="710" y="169"/>
      <point x="608" y="24"/>
    </contour>
    <contour>
      <point x="384" y="661" type="curve" smooth="yes"/>
      <point x="217" y="661"/>
      <point x="128" y="533"/>
      <point x="128" y="365" type="curve" smooth="yes"/>
      <point x="128" y="191"/>
      <point x="228" y="61"/>
      <point x="384" y="61" type="curve" smooth="yes"/>
      <point x="552" y="61"/>
      <point x="640" y="192"/>
      <point x="640" y="355" type="curve" smooth="yes"/>
      <point x="640" y="529"/>
      <point x="542" y="661"/>
    </contour>
  </outline>
</glyph>
<glyph name="R" format="1">
  <advance width="682"/>
  <unicode hex="0052"/>
  <outline>
    <contour>
      <point x="291" y="722" type="line" smooth="yes"/>
      <point x="434" y="722"/>
      <point x="551" y="661"/>
      <point x="551" y="522" type="curve" smooth="yes"/>
      <point x="551" y="430"/>
      <point x="493" y="368"/>
      <point x="405" y="338" type="curve"/>
      <point x="682" y="0" type="line"/>
      <point x="601" y="0" type="line"/>
      <point x="335" y="322" type="line"/>
      <point x="312" y="319"/>
      <point x="289" y="317"/>
      <point x="265" y="317" type="curve" smooth="yes"/>
      <point x="181" y="317" type="line"/>
      <point x="181" y="0" type="line"/>
      <point x="111" y="0" type="line"/>
      <point x="111" y="722" type="line"/>
    </contour>
    <contour>
      <point x="181" y="383" type="line"/>
      <point x="265" y="383" type="line" smooth="yes"/>
      <point x="381" y="383"/>
      <point x="482" y="421"/>
      <point x="482" y="521" type="curve" smooth="yes"/>
      <point x="482" y="617"/>
      <point x="394" y="654"/>
      <point x="291" y="654" type="curve" smooth="yes"/>
      <point x="181" y="654" type="line"/>
    </contour>
  </outline>
</glyph>
<glyph name="S" format="1">
  <advance width="580"/>
  <unicode hex="0053"/>
  <outline>
    <contour>
      <point x="456" y="617" type="line"/>
      <point x="403" y="645"/>
      <point x="346" y="665"/>
      <point x="280" y="665" type="curve" smooth="yes"/>
      <point x="207" y="665"/>
      <point x="150" y="628"/>
      <point x="150" y="563" type="curve" smooth="yes"/>
      <point x="150" y="484"/>
      <point x="243" y="441"/>
      <point x="320" y="403" type="curve" smooth="yes"/>
      <point x="413" y="357"/>
      <point x="511" y="293"/>
      <point x="511" y="174" type="curve" smooth="yes"/>
      <point x="511" y="63"/>
      <point x="408" y="-6"/>
      <point x="275" y="-6" type="curve" smooth="yes"/>
      <point x="197" y="-6"/>
      <point x="126" y="10"/>
      <point x="58" y="39" type="curve"/>
      <point x="82" y="104" type="line"/>
      <point x="144" y="75"/>
      <point x="214" y="60"/>
      <point x="284" y="60" type="curve" smooth="yes"/>
      <point x="369" y="60"/>
      <point x="437" y="98"/>
      <point x="438" y="176" type="curve"/>
      <point x="438" y="264"/>
      <point x="348" y="313"/>
      <point x="265" y="353" type="curve" smooth="yes"/>
      <point x="177" y="396"/>
      <point x="78" y="451"/>
      <point x="78" y="567" type="curve" smooth="yes"/>
      <point x="78" y="665"/>
      <point x="165" y="731"/>
      <point x="282" y="731" type="curve" smooth="yes"/>
      <point x="359" y="731"/>
      <point x="422" y="710"/>
      <point x="481" y="678" type="curve"/>
    </contour>
  </outline>
</glyph>
<glyph name="T" format="1">
  <advance width="621"/>
  <unicode hex="0054"/>
  <outline>
    <contour>
      <point x="-1" y="677" type="line"/>
      <point x="263" y="677" type="line"/>
      <point x="263" y="0" type="line"/>
      <point x="318" y="0" type="line"/>
      <point x="318" y="677" type="line"/>
      <point x="621" y="677" type="line"/>
      <point x="621" y="728" type="line"/>
      <point x="-1" y="728" type="line"/>
    </contour>
  </outline>
</glyph>
<glyph name="U" format="1">
  <advance width="705"/>
  <unicode hex="0055"/>
  <outline>
    <contour>
      <point x="82" y="722" type="line"/>
      <point x="153" y="722" type="line"/>
      <point x="153" y="313" type="line" smooth="yes"/>
      <point x="153" y="165"/>
      <point x="231" y="63"/>
      <point x="373" y="63" type="curve" smooth="yes"/>
      <point x="499" y="63"/>
      <point x="571" y="156"/>
      <point x="571" y="287" type="curve" smooth="yes"/>
      <point x="571" y="722" type="line"/>
      <point x="641" y="722" type="line"/>
      <point x="641" y="301" type="line" smooth="yes"/>
      <point x="641" y="120"/>
      <point x="535" y="-6"/>
      <point x="359" y="-6" type="curve" smooth="yes"/>
      <point x="183" y="-6"/>
      <point x="83" y="118"/>
      <point x="83" y="300" type="curve" smooth="yes"/>
    </contour>
  </outline>
</glyph>
<glyph name="V" format="1">
  <advance width="744"/>
  <unicode hex="0056"/>
  <outline>
    <contour>
      <point x="715" y="722" type="line"/>
      <point x="430" y="0" type="line"/>
      <point x="357" y="0" type="line"/>
      <point x="69" y="722" type="line"/>
      <point x="142" y="722" type="line"/>
      <point x="395" y="96" type="line"/>
      <point x="643" y="722" type="line"/>
    </contour>
  </outline>
</glyph>
<glyph name="W" format="1">
  <advance width="966"/>
  <unicode hex="0057"/>
  <outline>
    <contour>
      <point x="912" y="722" type="line"/>
      <point x="712" y="0" type="line"/>
      <point x="649" y="0" type="line"/>
      <point x="503" y="607" type="line"/>
      <point x="357" y="0" type="line"/>
      <point x="294" y="0" type="line"/>
      <point x="58" y="722" type="line"/>
      <point x="129" y="722" type="line"/>
      <point x="319" y="104" type="line"/>
      <point x="471" y="722" type="line"/>
      <point x="530" y="722" type="line"/>
      <point x="679" y="109" type="line"/>
      <point x="846" y="722" type="line"/>
    </contour>
  </outline>
</glyph>
<glyph name="X" format="1">
  <advance width="692"/>
  <unicode hex="0058"/>
  <outline>
    <contour>
      <point x="82" y="722" type="line"/>
      <point x="155" y="722" type="line"/>
      <point x="350" y="424" type="line"/>
      <point x="576" y="722" type="line"/>
      <point x="650" y="722" type="line"/>
      <point x="387" y="367" type="line"/>
      <point x="627" y="0" type="line"/>
      <point x="554" y="0" type="line"/>
      <point x="349" y="314" type="line"/>
      <point x="115" y="0" type="line"/>
      <point x="40" y="0" type="line"/>
      <point x="313" y="368" type="line"/>
    </contour>
  </outline>
</glyph>
<glyph name="Y" format="1">
  <advance width="622"/>
  <unicode hex="0059"/>
  <outline>
    <contour>
      <point x="540" y="722" type="line"/>
      <point x="324" y="413" type="line"/>
      <point x="109" y="722" type="line"/>
      <point x="54" y="722" type="line"/>
      <point x="292" y="368" type="line"/>
      <point x="292" y="0" type="line"/>
      <point x="346" y="0" type="line"/>
      <point x="346" y="368" type="line"/>
      <point x="596" y="722" type="line"/>
    </contour>
  </outline>
</glyph>
<glyph name="Z" format="1">
  <advance width="668"/>
  <unicode hex="005A"/>
  <outline>
    <contour>
      <point x="102" y="653" type="line"/>
      <point x="549" y="654" type="line"/>
      <point x="36" y="62" type="line"/>
      <point x="36" y="9" type="line"/>
      <point x="631" y="9" type="line"/>
      <point x="631" y="62" type="line"/>
      <point x="94" y="62" type="line"/>
      <point x="606" y="654" type="line"/>
      <point x="606" y="706" type="line"/>
      <point x="102" y="706" type="line"/>
    </contour>
  </outline>
</glyph>
<glyph name="underscore" format="1">
  <advance width="713"/>
  <unicode hex="005F"/>
  <outline>
    <contour>
      <point x="25" y="-172" type="line"/>
      <point x="692" y="-172" type="line"/>
      <point x="692" y="-242" type="line"/>
      <point x="25" y="-242" type="line"/>
    </contour>
  </outline>
</glyph>
<glyph name="grave" format="1">
  <advance width="340"/>
  <unicode hex="0060"/>
  <outline>
    <contour>
      <point x="223" y="656" type="line"/>
      <point x="73" y="846" type="line"/>
      <point x="147" y="846" type="line"/>
      <point x="293" y="656" type="line"/>
    </contour>
  </outline>
</glyph>
<glyph name="a" format="1">
  <advance width="553"/>
  <unicode hex="0061"/>
  <outline>
    <contour>
      <point x="386" y="310" type="curve" smooth="yes"/>
      <point x="386" y="309" type="line"/>
      <point x="238" y="309"/>
      <point x="99" y="301"/>
      <point x="66" y="167" type="curve" smooth="yes"/>
      <point x="63" y="154"/>
      <point x="61" y="142"/>
      <point x="61" y="130" type="curve" smooth="yes"/>
      <point x="61" y="49"/>
      <point x="136" y="-18"/>
      <point x="234" y="-18" type="curve" smooth="yes"/>
      <point x="297" y="-18"/>
      <point x="350" y="15"/>
      <point x="385" y="71" type="curve"/>
      <point x="385" y="0" type="line"/>
      <point x="439" y="0" type="line"/>
      <point x="439" y="112" type="line" smooth="yes"/>
      <point x="439" y="184"/>
      <point x="438" y="255"/>
      <point x="438" y="326" type="curve" smooth="yes"/>
      <point x="438" y="441"/>
      <point x="368" y="512"/>
      <point x="241" y="512" type="curve" smooth="yes"/>
      <point x="181" y="512"/>
      <point x="123" y="493"/>
      <point x="74" y="458" type="curve"/>
      <point x="105" y="420" type="line"/>
      <point x="141" y="448"/>
      <point x="185" y="463"/>
      <point x="230" y="463" type="curve" smooth="yes"/>
      <point x="333" y="463"/>
      <point x="386" y="402"/>
    </contour>
    <contour>
      <point x="113" y="136" type="curve" smooth="yes"/>
      <point x="113" y="148"/>
      <point x="116" y="161"/>
      <point x="120" y="174" type="curve" smooth="yes"/>
      <point x="147" y="252"/>
      <point x="216" y="265"/>
      <point x="298" y="265" type="curve" smooth="yes"/>
      <point x="326" y="265"/>
      <point x="356" y="263"/>
      <point x="386" y="262" type="curve"/>
      <point x="386" y="236"/>
      <point x="385" y="210"/>
      <point x="385" y="184" type="curve"/>
      <point x="362" y="92"/>
      <point x="313" y="28"/>
      <point x="237" y="28" type="curve" smooth="yes"/>
      <point x="164" y="28"/>
      <point x="113" y="77"/>
    </contour>
  </outline>
</glyph>
<glyph name="b" format="1">
  <advance width="598"/>
  <unicode hex="0062"/>
  <outline>
    <contour>
      <point x="303" y="-4" type="curve" smooth="yes"/>
      <point x="236" y="-4"/>
      <point x="185" y="18"/>
      <point x="147" y="57" type="curve"/>
      <point x="147" y="0" type="line"/>
      <point x="77" y="0" type="line"/>
      <point x="77" y="783" type="line"/>
      <point x="147" y="783" type="line"/>
      <point x="147" y="470" type="line"/>
      <point x="192" y="514"/>
      <point x="253" y="540"/>
      <point x="317" y="540" type="curve" smooth="yes"/>
      <point x="465" y="540"/>
      <point x="545" y="416"/>
      <point x="545" y="266" type="curve" smooth="yes"/>
      <point x="545" y="112"/>
      <point x="449" y="-4"/>
    </contour>
    <contour>
      <point x="473" y="261" type="curve" smooth="yes"/>
      <point x="473" y="386"/>
      <point x="408" y="487"/>
      <point x="294" y="487" type="curve"/>
      <point x="234" y="486"/>
      <point x="178" y="453"/>
      <point x="147" y="402" type="curve"/>
      <point x="147" y="135" type="line"/>
      <point x="175" y="83"/>
      <point x="227" y="52"/>
      <point x="287" y="52" type="curve" smooth="yes"/>
      <point x="412" y="52"/>
      <point x="473" y="149"/>
    </contour>
  </outline>
</glyph>
<glyph name="c" format="1">
  <advance width="499"/>
  <unicode hex="0063"/>
  <outline>
    <contour>
      <point x="121" y="250" type="curve" smooth="yes"/>
      <point x="121" y="368"/>
      <point x="190" y="462"/>
      <point x="317" y="462" type="curve" smooth="yes"/>
      <point x="365" y="462"/>
      <point x="411" y="447"/>
      <point x="450" y="417" type="curve"/>
      <point x="483" y="455" type="line"/>
      <point x="434" y="490"/>
      <point x="376" y="508"/>
      <point x="316" y="508" type="curve" smooth="yes"/>
      <point x="165" y="508"/>
      <point x="67" y="397"/>
      <point x="67" y="251" type="curve" smooth="yes"/>
      <point x="67" y="101"/>
      <point x="154" y="-7"/>
      <point x="306" y="-7" type="curve" smooth="yes"/>
      <point x="376" y="-7"/>
      <point x="443" y="18"/>
      <point x="495" y="66" type="curve"/>
      <point x="463" y="105" type="line"/>
      <point x="424" y="65"/>
      <point x="371" y="43"/>
      <point x="315" y="43" type="curve" smooth="yes"/>
      <point x="193" y="43"/>
      <point x="121" y="131"/>
    </contour>
  </outline>
</glyph>
<glyph name="d" format="1">
  <advance width="628"/>
  <unicode hex="0064"/>
  <outline>
    <contour>
      <point x="324" y="468" type="curve" smooth="yes"/>
      <point x="384" y="468"/>
      <point x="442" y="443"/>
      <point x="484" y="400" type="curve"/>
      <point x="484" y="380" type="line"/>
      <point x="484" y="176" type="line"/>
      <point x="465" y="97"/>
      <point x="396" y="32"/>
      <point x="300" y="32" type="curve" smooth="yes"/>
      <point x="194" y="32"/>
      <point x="122" y="122"/>
      <point x="122" y="243" type="curve" smooth="yes"/>
      <point x="122" y="370"/>
      <point x="195" y="468"/>
    </contour>
    <contour>
      <point x="323" y="509" type="curve" smooth="yes"/>
      <point x="172" y="509"/>
      <point x="70" y="396"/>
      <point x="70" y="236" type="curve" smooth="yes"/>
      <point x="71" y="96"/>
      <point x="156" y="-6"/>
      <point x="290" y="-6" type="curve" smooth="yes"/>
      <point x="369" y="-6"/>
      <point x="438" y="30"/>
      <point x="483" y="86" type="curve"/>
      <point x="483" y="0" type="line"/>
      <point x="537" y="0" type="line"/>
      <point x="537" y="98"/>
      <point x="538" y="199"/>
      <point x="538" y="298" type="curve" smooth="yes"/>
      <point x="538" y="475"/>
      <point x="537" y="652"/>
      <point x="536" y="829" type="curve"/>
      <point x="482" y="829" type="line"/>
      <point x="483" y="706"/>
      <point x="484" y="584"/>
      <point x="484" y="461" type="curve"/>
      <point x="437" y="492"/>
      <point x="386" y="509"/>
    </contour>
  </outline>
</glyph>
<glyph name="e" format="1">
  <advance width="568"/>
  <unicode hex="0065"/>
  <outline>
    <contour>
      <point x="288" y="542" type="curve" smooth="yes"/>
      <point x="429" y="542"/>
      <point x="504" y="442"/>
      <point x="504" y="300" type="curve" smooth="yes"/>
      <point x="504" y="284"/>
      <point x="503" y="268"/>
      <point x="501" y="252" type="curve"/>
      <point x="130" y="252" type="line"/>
      <point x="142" y="137"/>
      <point x="210" y="57"/>
      <point x="323" y="57" type="curve"/>
      <point x="372" y="58"/>
      <point x="420" y="75"/>
      <point x="458" y="107" type="curve"/>
      <point x="498" y="58" type="line"/>
      <point x="445" y="15"/>
      <point x="379" y="-8"/>
      <point x="312" y="-8" type="curve" smooth="yes"/>
      <point x="145" y="-8"/>
      <point x="58" y="111"/>
      <point x="58" y="274" type="curve" smooth="yes"/>
      <point x="58" y="428"/>
      <point x="151" y="542"/>
    </contour>
    <contour>
      <point x="435" y="309" type="line"/>
      <point x="430" y="405"/>
      <point x="378" y="475"/>
      <point x="291" y="476" type="curve"/>
      <point x="289" y="476" type="line" smooth="yes"/>
      <point x="195" y="476"/>
      <point x="137" y="405"/>
      <point x="129" y="309" type="curve"/>
    </contour>
  </outline>
</glyph>
<glyph name="f" format="1">
  <advance width="468"/>
  <unicode hex="0066"/>
  <outline>
    <contour>
      <point x="244" y="486" type="line"/>
      <point x="244" y="663" type="line" smooth="yes"/>
      <point x="244" y="741"/>
      <point x="308" y="795"/>
      <point x="376" y="795" type="curve" smooth="yes"/>
      <point x="402" y="795"/>
      <point x="428" y="787"/>
      <point x="452" y="770" type="curve"/>
      <point x="471" y="816" type="line"/>
      <point x="440" y="836"/>
      <point x="406" y="845"/>
      <point x="373" y="845" type="curve" smooth="yes"/>
      <point x="278" y="845"/>
      <point x="190" y="770"/>
      <point x="190" y="663" type="curve" smooth="yes"/>
      <point x="190" y="486" type="line"/>
      <point x="29" y="486" type="line"/>
      <point x="29" y="437" type="line"/>
      <point x="190" y="437" type="line"/>
      <point x="190" y="0" type="line"/>
      <point x="244" y="0" type="line"/>
      <point x="244" y="437" type="line"/>
      <point x="454" y="437" type="line"/>
      <point x="454" y="486" type="line"/>
    </contour>
  </outline>
</glyph>
<glyph name="g" format="1">
  <advance width="587"/>
  <unicode hex="0067"/>
  <outline>
    <contour>
      <point x="479" y="-110" type="curve" smooth="yes"/>
      <point x="479" y="-193"/>
      <point x="373" y="-246"/>
      <point x="262" y="-246" type="curve" smooth="yes"/>
      <point x="163" y="-246"/>
      <point x="88" y="-203"/>
      <point x="88" y="-115" type="curve" smooth="yes"/>
      <point x="88" y="-62"/>
      <point x="115" y="-20"/>
      <point x="155" y="5" type="curve"/>
      <point x="177" y="0"/>
      <point x="203" y="0"/>
      <point x="231" y="0" type="curve" smooth="yes"/>
      <point x="261" y="0"/>
      <point x="293" y="1"/>
      <point x="326" y="1" type="curve" smooth="yes"/>
      <point x="399" y="1"/>
      <point x="479" y="-30"/>
    </contour>
    <contour>
      <point x="530" y="-103" type="curve" smooth="yes"/>
      <point x="530" y="0"/>
      <point x="436" y="48"/>
      <point x="345" y="48" type="curve" smooth="yes"/>
      <point x="296" y="48"/>
      <point x="249" y="42"/>
      <point x="210" y="42" type="curve" smooth="yes"/>
      <point x="156" y="42"/>
      <point x="120" y="54"/>
      <point x="120" y="112" type="curve" smooth="yes"/>
      <point x="120" y="142"/>
      <point x="133" y="166"/>
      <point x="155" y="182" type="curve"/>
      <point x="187" y="160"/>
      <point x="227" y="148"/>
      <point x="270" y="148" type="curve" smooth="yes"/>
      <point x="379" y="148"/>
      <point x="470" y="230"/>
      <point x="470" y="331" type="curve" smooth="yes"/>
      <point x="470" y="371"/>
      <point x="459" y="400"/>
      <point x="440" y="427" type="curve"/>
      <point x="574" y="424" type="line"/>
      <point x="574" y="470" type="line"/>
      <point x="403" y="466" type="line"/>
      <point x="369" y="493"/>
      <point x="327" y="508"/>
      <point x="276" y="508" type="curve" smooth="yes"/>
      <point x="169" y="508"/>
      <point x="76" y="430"/>
      <point x="76" y="327" type="curve" smooth="yes"/>
      <point x="76" y="278"/>
      <point x="94" y="238"/>
      <point x="125" y="207" type="curve"/>
      <point x="93" y="185"/>
      <point x="72" y="148"/>
      <point x="72" y="108" type="curve" smooth="yes"/>
      <point x="72" y="62"/>
      <point x="92" y="33"/>
      <point x="119" y="18" type="curve"/>
      <point x="72" y="-16"/>
      <point x="42" y="-71"/>
      <point x="42" y="-131" type="curve" smooth="yes"/>
      <point x="42" y="-242"/>
      <point x="130" y="-294"/>
      <point x="246" y="-294" type="curve" smooth="yes"/>
      <point x="396" y="-294"/>
      <point x="530" y="-213"/>
    </contour>
    <contour>
      <point x="276" y="461" type="curve" smooth="yes"/>
      <point x="353" y="461"/>
      <point x="419" y="405"/>
      <point x="419" y="329" type="curve" smooth="yes"/>
      <point x="419" y="252"/>
      <point x="352" y="197"/>
      <point x="273" y="197" type="curve" smooth="yes"/>
      <point x="196" y="197"/>
      <point x="129" y="253"/>
      <point x="129" y="329" type="curve" smooth="yes"/>
      <point x="129" y="405"/>
      <point x="195" y="461"/>
    </contour>
  </outline>
</glyph>
<glyph name="h" format="1">
  <advance width="584"/>
  <unicode hex="0068"/>
  <outline>
    <contour>
      <point x="434" y="331" type="curve" smooth="yes"/>
      <point x="434" y="411"/>
      <point x="381" y="478"/>
      <point x="295" y="478" type="curve" smooth="yes"/>
      <point x="240" y="478"/>
      <point x="185" y="449"/>
      <point x="153" y="404" type="curve"/>
      <point x="153" y="269"/>
      <point x="153" y="134"/>
      <point x="154" y="0" type="curve"/>
      <point x="83" y="0" type="line"/>
      <point x="83" y="783" type="line"/>
      <point x="153" y="783" type="line"/>
      <point x="153" y="727" type="line"/>
      <point x="153" y="478" type="line"/>
      <point x="196" y="520"/>
      <point x="257" y="546"/>
      <point x="317" y="546" type="curve" smooth="yes"/>
      <point x="442" y="546"/>
      <point x="504" y="446"/>
      <point x="504" y="337" type="curve" smooth="yes"/>
      <point x="504" y="225"/>
      <point x="505" y="112"/>
      <point x="505" y="0" type="curve"/>
      <point x="435" y="0" type="line"/>
      <point x="435" y="110"/>
      <point x="434" y="221"/>
    </contour>
  </outline>
</glyph>
<glyph name="i" format="1">
  <advance width="258"/>
  <unicode hex="0069"/>
  <outline>
    <contour>
      <point x="93" y="690" type="line"/>
      <point x="93" y="811" type="line"/>
      <point x="166" y="811" type="line"/>
      <point x="166" y="690" type="line"/>
    </contour>
    <contour>
      <point x="95" y="0" type="line"/>
      <point x="94" y="533" type="line"/>
      <point x="165" y="533" type="line"/>
      <point x="165" y="0" type="line"/>
    </contour>
  </outline>
</glyph>
<glyph name="j" format="1">
  <advance width="361"/>
  <unicode hex="006A"/>
  <outline>
    <contour>
      <point x="166" y="683" type="line"/>
      <point x="166" y="810" type="line"/>
      <point x="239" y="810" type="line"/>
      <point x="239" y="683" type="line"/>
    </contour>
    <contour>
      <point x="34" y="-234" type="line"/>
      <point x="41" y="-235"/>
      <point x="48" y="-236"/>
      <point x="55" y="-236" type="curve" smooth="yes"/>
      <point x="115" y="-236"/>
      <point x="167" y="-187"/>
      <point x="167" y="-124" type="curve" smooth="yes"/>
      <point x="167" y="535" type="line"/>
      <point x="237" y="535" type="line"/>
      <point x="237" y="-124" type="line" smooth="yes"/>
      <point x="237" y="-224"/>
      <point x="154" y="-304"/>
      <point x="57" y="-304" type="curve" smooth="yes"/>
      <point x="49" y="-304"/>
      <point x="42" y="-303"/>
      <point x="34" y="-302" type="curve"/>
    </contour>
  </outline>
</glyph>
<glyph name="k" format="1">
  <advance width="608"/>
  <unicode hex="006B"/>
  <outline>
    <contour>
      <point x="118" y="0" type="line"/>
      <point x="172" y="0" type="line"/>
      <point x="172" y="249" type="line"/>
      <point x="492" y="0" type="line"/>
      <point x="560" y="0" type="line"/>
      <point x="220" y="271" type="line"/>
      <point x="535" y="502" type="line"/>
      <point x="467" y="502" type="line"/>
      <point x="172" y="289" type="line"/>
      <point x="172" y="796" type="line"/>
      <point x="118" y="796" type="line"/>
    </contour>
  </outline>
</glyph>
<glyph name="l" format="1">
  <advance width="275"/>
  <unicode hex="006C"/>
  <outline>
    <contour>
      <point x="110" y="1" type="line"/>
      <point x="164" y="1" type="line"/>
      <point x="164" y="829" type="line"/>
      <point x="109" y="829" type="line"/>
    </contour>
  </outline>
</glyph>
<glyph name="m" format="1">
  <advance width="938"/>
  <unicode hex="006D"/>
  <outline>
    <contour>
      <point x="444" y="347" type="curve" smooth="yes"/>
      <point x="444" y="232"/>
      <point x="444" y="117"/>
      <point x="443" y="1" type="curve"/>
      <point x="497" y="1" type="line"/>
      <point x="498" y="116"/>
      <point x="498" y="231"/>
      <point x="498" y="346" type="curve" smooth="yes"/>
      <point x="498" y="354" type="line"/>
      <point x="528" y="426"/>
      <point x="581" y="472"/>
      <point x="652" y="472" type="curve" smooth="yes"/>
      <point x="743" y="472"/>
      <point x="790" y="415"/>
      <point x="790" y="333" type="curve" smooth="yes"/>
      <point x="790" y="1" type="line"/>
      <point x="845" y="1" type="line"/>
      <point x="844" y="112"/>
      <point x="844" y="224"/>
      <point x="844" y="335" type="curve" smooth="yes"/>
      <point x="844" y="441"/>
      <point x="776" y="518"/>
      <point x="655" y="518" type="curve" smooth="yes"/>
      <point x="585" y="518"/>
      <point x="524" y="483"/>
      <point x="483" y="422" type="curve"/>
      <point x="458" y="477"/>
      <point x="396" y="516"/>
      <point x="313" y="516" type="curve" smooth="yes"/>
      <point x="249" y="516"/>
      <point x="196" y="486"/>
      <point x="150" y="437" type="curve"/>
      <point x="150" y="502" type="line"/>
      <point x="96" y="502" type="line"/>
      <point x="96" y="405" type="line" smooth="yes"/>
      <point x="96" y="255"/>
      <point x="96" y="150"/>
      <point x="95" y="0" type="curve"/>
      <point x="149" y="0" type="line"/>
      <point x="150" y="137"/>
      <point x="150" y="236"/>
      <point x="150" y="366" type="curve"/>
      <point x="195" y="429"/>
      <point x="242" y="473"/>
      <point x="312" y="473" type="curve" smooth="yes"/>
      <point x="396" y="473"/>
      <point x="444" y="423"/>
    </contour>
  </outline>
</glyph>
<glyph name="n" format="1">
  <advance width="593"/>
  <unicode hex="006E"/>
  <outline>
    <contour>
      <point x="335" y="510" type="curve" smooth="yes"/>
      <point x="262" y="510"/>
      <point x="194" y="478"/>
      <point x="143" y="425" type="curve"/>
      <point x="143" y="502" type="line"/>
      <point x="89" y="502" type="line"/>
      <point x="89" y="405" type="line" smooth="yes"/>
      <point x="89" y="270"/>
      <point x="88" y="135"/>
      <point x="87" y="0" type="curve"/>
      <point x="141" y="0" type="line"/>
      <point x="142" y="114"/>
      <point x="143" y="228"/>
      <point x="143" y="342" type="curve"/>
      <point x="183" y="409"/>
      <point x="251" y="461"/>
      <point x="333" y="461" type="curve" smooth="yes"/>
      <point x="406" y="461"/>
      <point x="453" y="414"/>
      <point x="453" y="339" type="curve" smooth="yes"/>
      <point x="453" y="0" type="line"/>
      <point x="507" y="0" type="line"/>
      <point x="507" y="343" type="line" smooth="yes"/>
      <point x="507" y="445"/>
      <point x="446" y="510"/>
    </contour>
  </outline>
</glyph>
<glyph name="o" format="1">
  <advance width="610"/>
  <unicode hex="006F"/>
  <outline>
    <contour>
      <point x="133" y="276" type="curve" smooth="yes"/>
      <point x="133" y="152"/>
      <point x="196" y="61"/>
      <point x="303" y="61" type="curve" smooth="yes"/>
      <point x="419" y="61"/>
      <point x="472" y="151"/>
      <point x="472" y="267" type="curve" smooth="yes"/>
      <point x="472" y="386"/>
      <point x="409" y="474"/>
      <point x="303" y="474" type="curve" smooth="yes"/>
      <point x="187" y="474"/>
      <point x="133" y="387"/>
    </contour>
    <contour>
      <point x="304" y="-7" type="curve" smooth="yes"/>
      <point x="143" y="-7"/>
      <point x="63" y="108"/>
      <point x="63" y="267" type="curve" smooth="yes"/>
      <point x="63" y="425"/>
      <point x="154" y="539"/>
      <point x="302" y="539" type="curve" smooth="yes"/>
      <point x="460" y="539"/>
      <point x="542" y="426"/>
      <point x="542" y="270" type="curve" smooth="yes"/>
      <point x="542" y="109"/>
      <point x="450" y="-7"/>
    </contour>
  </outline>
</glyph>
<glyph name="p" format="1">
  <advance width="627"/>
  <unicode hex="0070"/>
  <outline>
    <contour>
      <point x="305" y="-6" type="curve" smooth="yes"/>
      <point x="245" y="-6"/>
      <point x="197" y="11"/>
      <point x="156" y="42" type="curve"/>
      <point x="156" y="-72"/>
      <point x="155" y="-186"/>
      <point x="154" y="-300" type="curve"/>
      <point x="83" y="-300" type="line"/>
      <point x="85" y="-154"/>
      <point x="86" y="-9"/>
      <point x="86" y="137" type="curve" smooth="yes"/>
      <point x="86" y="269"/>
      <point x="86" y="403"/>
      <point x="83" y="533" type="curve"/>
      <point x="154" y="533" type="line"/>
      <point x="154" y="507"/>
      <point x="155" y="481"/>
      <point x="155" y="455" type="curve"/>
      <point x="203" y="507"/>
      <point x="272" y="540"/>
      <point x="342" y="540" type="curve" smooth="yes"/>
      <point x="486" y="540"/>
      <point x="564" y="414"/>
      <point x="564" y="273" type="curve" smooth="yes"/>
      <point x="564" y="111"/>
      <point x="460" y="-6"/>
    </contour>
    <contour>
      <point x="322" y="488" type="curve" smooth="yes"/>
      <point x="248" y="488"/>
      <point x="184" y="438"/>
      <point x="155" y="375" type="curve"/>
      <point x="155" y="285"/>
      <point x="156" y="196"/>
      <point x="156" y="106" type="curve"/>
      <point x="192" y="71"/>
      <point x="237" y="53"/>
      <point x="288" y="53" type="curve" smooth="yes"/>
      <point x="420" y="53"/>
      <point x="495" y="150"/>
      <point x="495" y="278" type="curve" smooth="yes"/>
      <point x="495" y="392"/>
      <point x="426" y="488"/>
    </contour>
  </outline>
</glyph>
<glyph name="q" format="1">
  <advance width="635"/>
  <unicode hex="0071"/>
  <outline>
    <contour>
      <point x="319" y="538" type="curve" smooth="yes"/>
      <point x="388" y="538"/>
      <point x="438" y="516"/>
      <point x="480" y="480" type="curve"/>
      <point x="480" y="533" type="line"/>
      <point x="550" y="533" type="line"/>
      <point x="550" y="-300" type="line"/>
      <point x="480" y="-300" type="line"/>
      <point x="480" y="31" type="line"/>
      <point x="437" y="4"/>
      <point x="390" y="-9"/>
      <point x="338" y="-9" type="curve" smooth="yes"/>
      <point x="174" y="-9"/>
      <point x="60" y="104"/>
      <point x="60" y="270" type="curve" smooth="yes"/>
      <point x="60" y="421"/>
      <point x="171" y="538"/>
    </contour>
    <contour>
      <point x="133" y="272" type="curve" smooth="yes"/>
      <point x="133" y="134"/>
      <point x="229" y="44"/>
      <point x="359" y="44" type="curve" smooth="yes"/>
      <point x="404" y="44"/>
      <point x="444" y="58"/>
      <point x="480" y="84" type="curve"/>
      <point x="480" y="417" type="line"/>
      <point x="444" y="459"/>
      <point x="394" y="483"/>
      <point x="338" y="483" type="curve" smooth="yes"/>
      <point x="212" y="483"/>
      <point x="133" y="388"/>
    </contour>
  </outline>
</glyph>
<glyph name="r" format="1">
  <advance width="435"/>
  <unicode hex="0072"/>
  <outline>
    <contour>
      <point x="381" y="458" type="curve" smooth="yes"/>
      <point x="392" y="458"/>
      <point x="403" y="457"/>
      <point x="414" y="456" type="curve"/>
      <point x="423" y="508" type="line"/>
      <point x="411" y="509"/>
      <point x="400" y="510"/>
      <point x="388" y="510" type="curve" smooth="yes"/>
      <point x="285" y="510"/>
      <point x="207" y="470"/>
      <point x="149" y="418" type="curve"/>
      <point x="149" y="502" type="line"/>
      <point x="95" y="502" type="line"/>
      <point x="95" y="0" type="line"/>
      <point x="149" y="0" type="line"/>
      <point x="149" y="346" type="line"/>
      <point x="201" y="411"/>
      <point x="274" y="458"/>
    </contour>
  </outline>
</glyph>
<glyph name="s" format="1">
  <advance width="487"/>
  <unicode hex="0073"/>
  <outline>
    <contour>
      <point x="256" y="479" type="curve" smooth="yes"/>
      <point x="192" y="479"/>
      <point x="140" y="453"/>
      <point x="140" y="399" type="curve" smooth="yes"/>
      <point x="140" y="325"/>
      <point x="213" y="311"/>
      <point x="277" y="292" type="curve"/>
      <point x="359" y="269"/>
      <point x="436" y="231"/>
      <point x="436" y="143" type="curve" smooth="yes"/>
      <point x="436" y="45"/>
      <point x="331" y="-6"/>
      <point x="214" y="-6" type="curve" smooth="yes"/>
      <point x="142" y="-6"/>
      <point x="81" y="13"/>
      <point x="21" y="52" type="curve"/>
      <point x="53" y="108" type="line"/>
      <point x="107" y="74"/>
      <point x="162" y="58"/>
      <point x="226" y="58" type="curve" smooth="yes"/>
      <point x="295" y="58"/>
      <point x="363" y="75"/>
      <point x="363" y="140" type="curve" smooth="yes"/>
      <point x="363" y="200"/>
      <point x="296" y="220"/>
      <point x="232" y="238" type="curve" smooth="yes"/>
      <point x="150" y="262"/>
      <point x="70" y="301"/>
      <point x="70" y="399" type="curve" smooth="yes"/>
      <point x="70" y="483"/>
      <point x="146" y="540"/>
      <point x="248" y="540" type="curve" smooth="yes"/>
      <point x="315" y="540"/>
      <point x="366" y="523"/>
      <point x="417" y="491" type="curve"/>
      <point x="389" y="435" type="line"/>
      <point x="348" y="465"/>
      <point x="305" y="479"/>
    </contour>
  </outline>
</glyph>
<glyph name="t" format="1">
  <advance width="440"/>
  <unicode hex="0074"/>
  <outline>
    <contour>
      <point x="27" y="448" type="line"/>
      <point x="26" y="514" type="line"/>
      <point x="156" y="514" type="line"/>
      <point x="156" y="628" type="line"/>
      <point x="226" y="671" type="line"/>
      <point x="226" y="515" type="line"/>
      <point x="423" y="515" type="line"/>
      <point x="423" y="449" type="line"/>
      <point x="226" y="449" type="line"/>
      <point x="226" y="187" type="line" smooth="yes"/>
      <point x="226" y="116"/>
      <point x="248" y="54"/>
      <point x="310" y="54" type="curve" smooth="yes"/>
      <point x="339" y="54"/>
      <point x="367" y="62"/>
      <point x="392" y="77" type="curve"/>
      <point x="414" y="22" type="line"/>
      <point x="373" y="4"/>
      <point x="329" y="-6"/>
      <point x="284" y="-6" type="curve" smooth="yes"/>
      <point x="203" y="-6"/>
      <point x="156" y="60"/>
      <point x="156" y="145" type="curve" smooth="yes"/>
      <point x="156" y="448" type="line"/>
    </contour>
  </outline>
</glyph>
<glyph name="u" format="1">
  <advance width="595"/>
  <unicode hex="0075"/>
  <outline>
    <contour>
      <point x="158" y="192" type="line" smooth="yes"/>
      <point x="158" y="109"/>
      <point x="207" y="45"/>
      <point x="299" y="45" type="curve" smooth="yes"/>
      <point x="363" y="45"/>
      <point x="419" y="84"/>
      <point x="444" y="140" type="curve"/>
      <point x="444" y="533" type="line"/>
      <point x="515" y="533" type="line"/>
      <point x="515" y="0" type="line"/>
      <point x="444" y="0" type="line"/>
      <point x="444" y="64" type="line"/>
      <point x="402" y="17"/>
      <point x="341" y="-11"/>
      <point x="275" y="-11" type="curve" smooth="yes"/>
      <point x="158" y="-11"/>
      <point x="89" y="65"/>
      <point x="88" y="169" type="curve"/>
      <point x="88" y="533" type="line"/>
      <point x="159" y="533" type="line"/>
    </contour>
  </outline>
</glyph>
<glyph name="v" format="1">
  <advance width="564"/>
  <unicode hex="0076"/>
  <outline>
    <contour>
      <point x="42" y="502" type="line"/>
      <point x="247" y="0" type="line"/>
      <point x="299" y="0" type="line"/>
      <point x="516" y="502" type="line"/>
      <point x="462" y="502" type="line"/>
      <point x="270" y="54" type="line"/>
      <point x="96" y="502" type="line"/>
    </contour>
  </outline>
</glyph>
<glyph name="w" format="1">
  <advance width="931"/>
  <unicode hex="0077"/>
  <outline>
    <contour>
      <point x="60" y="502" type="line"/>
      <point x="259" y="0" type="line"/>
      <point x="313" y="0" type="line"/>
      <point x="461" y="426" type="line"/>
      <point x="603" y="0" type="line"/>
      <point x="657" y="0" type="line"/>
      <point x="884" y="502" type="line"/>
      <point x="830" y="502" type="line"/>
      <point x="627" y="54" type="line"/>
      <point x="488" y="502" type="line"/>
      <point x="436" y="502" type="line"/>
      <point x="277" y="52" type="line"/>
      <point x="115" y="502" type="line"/>
    </contour>
  </outline>
</glyph>
<glyph name="x" format="1">
  <advance width="569"/>
  <unicode hex="0078"/>
  <outline>
    <contour>
      <point x="94" y="502" type="line"/>
      <point x="263" y="262" type="line"/>
      <point x="54" y="0" type="line"/>
      <point x="108" y="0" type="line"/>
      <point x="291" y="221" type="line"/>
      <point x="447" y="0" type="line"/>
      <point x="501" y="0" type="line"/>
      <point x="318" y="261" type="line"/>
      <point x="505" y="502" type="line"/>
      <point x="451" y="502" type="line"/>
      <point x="289" y="302" type="line"/>
      <point x="148" y="502" type="line"/>
    </contour>
  </outline>
</glyph>
<glyph name="y" format="1">
  <advance width="574"/>
  <unicode hex="0079"/>
  <outline>
    <contour>
      <point x="51" y="502" type="line"/>
      <point x="253" y="74" type="line"/>
      <point x="69" y="-289" type="line"/>
      <point x="124" y="-289" type="line"/>
      <point x="525" y="502" type="line"/>
      <point x="470" y="502" type="line"/>
      <point x="279" y="125" type="line"/>
      <point x="105" y="502" type="line"/>
    </contour>
  </outline>
</glyph>
<glyph name="z" format="1">
  <advance width="412"/>
  <unicode hex="007A"/>
  <outline>
    <contour>
      <point x="31" y="436" type="line"/>
      <point x="352" y="436" type="line"/>
      <point x="-12" y="51" type="line"/>
      <point x="-12" y="0" type="line"/>
      <point x="419" y="0" type="line"/>
      <point x="419" y="51" type="line"/>
      <point x="45" y="51" type="line"/>
      <point x="410" y="436" type="line"/>
      <point x="410" y="487" type="line"/>
      <point x="31" y="486" type="line"/>
    </contour>
  </outline>
</glyph>
<glyph name="bar" format="1">
  <advance width="71"/>
  <unicode hex="007C"/>
  <outline>
    <contour>
      <point x="9" y="-422" type="line"/>
      <point x="63" y="-422" type="line"/>
      <point x="63" y="-358" type="line"/>
      <point x="9" y="-358" type="line"/>
    </contour>
    <contour>
      <point x="9" y="872" type="line"/>
      <point x="63" y="872" type="line"/>
      <point x="63" y="936" type="line"/>
      <point x="9" y="936" type="line"/>
    </contour>
    <contour>
      <point x="9" y="797" type="line"/>
      <point x="9" y="786" type="line"/>
      <point x="63" y="786" type="line"/>
      <point x="63" y="797" type="line"/>
    </contour>
    <contour>
      <point x="9" y="503" type="line"/>
      <point x="63" y="503" type="line"/>
      <point x="63" y="747" type="line"/>
      <point x="9" y="747" type="line"/>
    </contour>
    <contour>
      <point x="9" y="1" type="line"/>
      <point x="63" y="1" type="line"/>
      <point x="63" y="501" type="line"/>
      <point x="9" y="501" type="line"/>
    </contour>
    <contour>
      <point x="9" y="-289" type="line"/>
      <point x="63" y="-289" type="line"/>
      <point x="63" y="-1" type="line"/>
      <point x="9" y="-1" type="line"/>
    </contour>
  </outline>
</glyph>
